<?xml version="1.0" encoding="UTF-8" standalone="no"?>
<!-- Created with Inkscape (http://www.inkscape.org/) -->

<svg
   xmlns:dc="http://purl.org/dc/elements/1.1/"
   xmlns:cc="http://creativecommons.org/ns#"
   xmlns:rdf="http://www.w3.org/1999/02/22-rdf-syntax-ns#"
   xmlns:svg="http://www.w3.org/2000/svg"
   xmlns="http://www.w3.org/2000/svg"
   xmlns:sodipodi="http://sodipodi.sourceforge.net/DTD/sodipodi-0.dtd"
   xmlns:inkscape="http://www.inkscape.org/namespaces/inkscape"
   width="26.387486mm"
   height="25.774616mm"
   viewBox="0 0 93.498964 91.32738"
   id="svg2"
   version="1.1"
   inkscape:version="0.91 r13725"
   sodipodi:docname="Gewicht.svg"
   inkscape:export-filename="F:\ProzProg\Hängebauchschwein-Simulator\image\weightIcon.png"
   inkscape:export-xdpi="98.54657"
   inkscape:export-ydpi="98.54657">
  <defs
     id="defs4" />
  <sodipodi:namedview
     id="base"
     pagecolor="#ffffff"
     bordercolor="#666666"
     borderopacity="1.0"
     inkscape:pageopacity="0.0"
     inkscape:pageshadow="2"
     inkscape:zoom="2.8"
     inkscape:cx="101.21755"
     inkscape:cy="34.35156"
     inkscape:document-units="px"
     inkscape:current-layer="g5071"
     showgrid="false"
     inkscape:window-width="1366"
     inkscape:window-height="705"
     inkscape:window-x="-8"
     inkscape:window-y="-8"
     inkscape:window-maximized="1"
     fit-margin-top="0"
     fit-margin-left="0"
     fit-margin-right="0"
     fit-margin-bottom="0" />
  <metadata
     id="metadata7">
    <rdf:RDF>
      <cc:Work
         rdf:about="">
        <dc:format>image/svg+xml</dc:format>
        <dc:type
           rdf:resource="http://purl.org/dc/dcmitype/StillImage" />
        <dc:title></dc:title>
      </cc:Work>
    </rdf:RDF>
  </metadata>
  <g
     inkscape:label="Ebene 1"
     inkscape:groupmode="layer"
     id="layer1"
     transform="translate(-512.05963,-354.16808)">
    <g
       id="g5071">
      <path
         inkscape:connector-curvature="0"
         id="path4147"
         d="m 558.80956,355.91808 a 12.185212,12.185212 0 0 0 -12.18544,12.18543 12.185212,12.185212 0 0 0 3.04859,8.04687 l -4.86138,0 -11.77824,0 c -5.50773,0.19378 -7.20385,3.42046 -8.04687,6.66705 l -10.80561,54.4886 c -1.13024,5.247 0.44331,6.48914 4.59821,6.43768 l 11.54798,0 56.96552,0 11.54709,0 c 4.1549,0.0515 5.72844,-1.19068 4.59821,-6.43768 l -10.80561,-54.4886 c -0.84302,-3.24659 -2.53915,-6.47327 -8.04687,-6.66705 l -11.77736,0 -4.86848,0 a 12.185212,12.185212 0 0 0 3.0548,-8.04687 12.185212,12.185212 0 0 0 -12.18454,-12.18543 z m 0,5.86334 a 6.3225157,6.3225157 0 0 1 6.32209,6.32209 6.3225157,6.3225157 0 0 1 -6.32209,6.32298 6.3225157,6.3225157 0 0 1 -6.32298,-6.32298 6.3225157,6.3225157 0 0 1 6.32298,-6.32209 z"
         style="opacity:0.97000002;fill:#353535;fill-opacity:1;fill-rule:evenodd;stroke:#1e1e1e;stroke-width:3.5;stroke-linecap:butt;stroke-linejoin:miter;stroke-miterlimit:4;stroke-dasharray:none;stroke-opacity:1" />
      <text
         sodipodi:linespacing="125%"
         id="text4171"
         y="434.12112"
         x="544.80383"
         style="font-style:normal;font-variant:normal;font-weight:normal;font-stretch:normal;font-size:21.07467842px;line-height:125%;font-family:'HVD Comic Serif Pro';-inkscape-font-specification:'HVD Comic Serif Pro, Normal';text-align:start;letter-spacing:0px;word-spacing:0px;writing-mode:lr-tb;text-anchor:start;opacity:0.97000002;fill:#78787a;fill-opacity:1;stroke:none;stroke-width:1px;stroke-linecap:butt;stroke-linejoin:miter;stroke-opacity:1;"
         xml:space="preserve"><tspan
           y="434.12112"
           x="544.80383"
           id="tspan4173"
           sodipodi:role="line">kg</tspan></text>
    </g>
  </g>
</svg>
